Coordinates
version=1
nRows=11
nColumns=42
inDegrees=yes

Units are S.I. units (second, meters, Newtons, ...)
If the header above contains a line with 'inDegrees', this indicates whether rotational values are in degrees (yes) or radians (no).

endheader
time	pelvis_tilt	pelvis_list	pelvis_rotation	pelvis_tx	pelvis_ty	pelvis_tz	hip_flexion_r	hip_adduction_r	hip_rotation_r	knee_angle_r	knee_adduction_r	knee_angle_r_beta	ankle_angle_r	subtalar_angle_r	mtp_angle_r	hip_flexion_l	hip_adduction_l	hip_rotation_l	knee_angle_l	knee_adduction_l	knee_angle_l_beta	ankle_angle_l	subtalar_angle_l	mtp_angle_l	lumbar_extension	lumbar_bending	lumbar_rotation	arm_flex_r	arm_add_r	arm_rot_r	elbow_flex_r	pro_sup_r	wrist_flex_r	wrist_dev_r	arm_flex_l	arm_add_l	arm_rot_l	elbow_flex_l	pro_sup_l	wrist_flex_l	wrist_dev_l
      2.43000000	     11.85568291	      4.26112569	      3.57832091	      0.62479124	      0.93329960	     -0.28488328	      4.59049360	     -5.05353448	     -1.09718924	     61.92457685	      4.17659468	      1.08078775	      4.94494248	    -15.05624081	     -7.50550166	      0.31460756	      8.88932415	    -23.66485556	     24.39176999	     -7.36586856	      0.42571670	     20.54953640	     19.38267659	     -7.50550166	    -43.53654233	     -7.47595485	     -2.17198363	      2.29601686	     -8.92044680	     10.44115068	     40.12620712	     90.00000001	      0.00000000	      0.00000000	     -2.28252662	    -15.05235778	     20.00944734	     50.70535424	     90.00000001	      0.00000000	      0.00000000
      2.44000000	     11.71533101	      4.26063611	      3.63367436	      0.62900209	      0.93336138	     -0.28524137	      5.92904668	     -5.00636173	     -1.02752386	     61.57291294	      3.76625708	      1.07465006	      5.57618862	    -15.00215544	     -7.50543812	      0.03157680	      8.90160666	    -24.02884934	     24.10247367	     -7.43401252	      0.42066752	     20.65280869	     19.66220205	     -7.50543812	    -43.47859969	     -7.38639126	     -2.29219578	      2.30267728	     -8.82778616	     10.45629365	     40.21437780	     90.00000001	      0.00000000	      0.00000000	     -2.25873666	    -15.10289447	     20.04499697	     50.61741233	     90.00000001	      0.00000000	      0.00000000
      2.45000000	     11.63611350	      4.30546613	      3.45880823	      0.63337864	      0.93329777	     -0.28530353	      7.25699688	     -5.00668594	     -0.78761416	     61.21788035	      3.35856574	      1.06845357	      6.67787174	    -14.57643745	     -7.50517956	     -0.20062529	      8.85343739	    -25.85409007	     23.86301927	     -7.96007258	      0.41648826	     21.07340358	     22.83099616	     -7.50517956	    -43.43921450	     -7.44320563	     -2.19759924	      2.26478638	     -8.80874306	     10.38499113	     40.31974842	     90.00000001	      0.00000000	      0.00000000	     -2.17879512	    -15.10631769	     20.20394975	     50.47595056	     90.00000001	      0.00000000	      0.00000000
      2.46000000	     11.53119538	      4.30888855	      3.46494689	      0.63759227	      0.93343425	     -0.28550407	      8.47346422	     -4.86886510	     -0.72783597	     60.53238065	      2.84576081	      1.05648935	      7.29782204	    -14.75934922	     -7.50511501	     -0.55185174	      8.90571297	    -26.07702074	     23.53279251	     -8.01110794	      0.41072471	     21.24262904	     22.94883365	     -7.50511501	    -43.41259520	     -7.37477383	     -2.24033811	      2.28942054	     -8.75210041	     10.40909361	     40.36377186	     90.00000001	      0.00000000	      0.00000000	     -2.15837907	    -15.12743903	     20.20888128	     50.36964781	     90.00000001	      0.00000000	      0.00000000
      2.47000000	     11.46052001	      4.35139470	      3.44747544	      0.64193439	      0.93361022	     -0.28570561	      9.58236092	     -4.80364091	     -0.62094250	     59.68064394	      2.44106829	      1.04162374	      7.85708160	    -14.95387765	     -7.50505356	     -1.00091760	      9.04245693	    -26.30669505	     23.07055771	     -8.09514037	      0.40265719	     21.37246034	     23.29303048	     -7.50505356	    -43.40255190	     -7.34484236	     -2.29227681	      2.28655588	     -8.69881294	     10.40904272	     40.41422326	     90.00000001	      0.00000000	      0.00000000	     -2.16846178	    -15.14983288	     20.23333109	     50.22852586	     90.00000001	      0.00000000	      0.00000000
      2.48000000	     11.28891956	      4.43276726	      3.54593539	      0.64609982	      0.93356026	     -0.28613971	     10.77256643	     -4.95816608	     -0.61875021	     58.74726987	      2.28319420	      1.02533329	      8.01558568	    -14.68600057	     -7.50500027	     -1.22663583	      9.11476332	    -26.35784108	     22.94752874	     -7.94714507	      0.40050993	     21.36043904	     23.21569086	     -7.50500027	    -43.32983781	     -7.28214447	     -2.45669380	      2.29096094	     -8.66458799	     10.38727923	     40.57856135	     90.00000001	      0.00000000	      0.00000000	     -2.23456152	    -15.19778038	     20.22324297	     50.23550019	     90.00000001	      0.00000000	      0.00000000
      2.49000000	     11.66134004	      4.48281155	      3.40942724	      0.65120122	      0.93472655	     -0.28613302	     11.02599906	     -4.79279703	     -0.20805882	     57.23634015	      2.09210063	      0.99896259	      8.52176659	    -15.33242545	     -7.50489837	     -2.61260690	      9.38013099	    -26.55716966	     21.62311044	     -8.04244045	      0.37739447	     21.40950971	     24.71828070	     -7.50489837	    -43.70226318	     -7.27749931	     -2.38934850	      2.21324381	     -8.61832813	     10.29801654	     40.60727710	     90.00000001	      0.00000000	      0.00000000	     -2.25135660	    -15.19728367	     20.27780381	     49.93980523	     90.00000001	      0.00000000	      0.00000000
      2.50000000	     11.78349444	      4.51884946	      3.41149771	      0.65594308	      0.93524568	     -0.28638491	     11.60390757	     -4.74269832	     -0.09890621	     55.75840407	      1.89077984	      0.97316774	      8.68285264	    -15.53093438	     -7.50476630	     -3.45312868	      9.53915615	    -26.54090293	     20.91334175	     -8.01063757	      0.36500667	     21.45484948	     25.13551336	     -7.50476630	    -43.85139053	     -7.19129148	     -2.44376628	      2.18014564	     -8.60942570	     10.25426898	     40.71311380	     90.00000001	      0.00000000	      0.00000000	     -2.36481769	    -15.21218758	     20.28504542	     49.84992970	     90.00000001	      0.00000000	      0.00000000
      2.51000000	     11.69082086	      4.61089644	      3.40864442	      0.66044327	      0.93520650	     -0.28654819	     12.49037589	     -4.75061176	     -0.01516025	     54.36115090	      1.62058254	      0.94878107	      8.88521982	    -15.59944779	     -7.50470520	     -3.89540735	      9.83955662	    -26.48715299	     20.40533143	     -8.18082930	      0.35614022	     21.59828161	     25.09097347	     -7.50470520	    -43.79689185	     -7.19299274	     -2.53898533	      2.15441919	     -8.56045383	     10.23852397	     40.77069166	     90.00000001	      0.00000000	      0.00000000	     -2.48892526	    -15.27280944	     20.28654386	     49.75080712	     90.00000001	      0.00000000	      0.00000000
      2.52000000	     12.05032707	      4.67343936	      3.43848208	      0.66548490	      0.93627797	     -0.28682337	     12.53313139	     -4.79576283	      0.16383402	     52.43772378	      1.70245278	      0.91521093	      8.75763463	    -15.81712755	     -7.50458798	     -5.32155280	     10.06518927	    -25.86290658	     19.20480847	     -7.84030132	      0.33518714	     21.44100055	     25.28154180	     -7.50458798	    -44.19030588	     -7.08118892	     -2.60912449	      2.11294193	     -8.54908095	     10.14105134	     40.87082343	     90.00000001	      0.00000000	      0.00000000	     -2.58402476	    -15.27963332	     20.25409171	     49.58459742	     90.00000001	      0.00000000	      0.00000000
      2.53000000	     12.22882006	      4.75425446	      3.46698110	      0.67035447	      0.93681684	     -0.28708541	     12.82095824	     -4.84410571	      0.17805087	     50.55075047	      1.58038554	      0.88227703	      8.67949299	    -15.81412671	     -7.50445305	     -6.39743059	     10.37455427	    -25.22349664	     18.21847745	     -7.70560630	      0.31797242	     21.33088130	     24.96404708	     -7.50445305	    -44.40250546	     -7.00507501	     -2.68545137	      2.06459390	     -8.54871841	     10.09023037	     40.96589463	     90.00000001	      0.00000000	      0.00000000	     -2.71403075	    -15.30810173	     20.22277739	     49.49602171	     90.00000001	      0.00000000	      0.00000000
